<svg width="22" height="20" viewBox="0 0 22 20" fill="none" xmlns="http://www.w3.org/2000/svg">
<path d="M10.6196 0.494428C10.7393 0.125903 11.2607 0.125903 11.3804 0.494427L13.4868 6.97721C13.5671 7.22442 13.7975 7.3918 14.0574 7.3918H20.8738C21.2613 7.3918 21.4224 7.88764 21.1089 8.1154L15.5944 12.122C15.3841 12.2748 15.2961 12.5456 15.3764 12.7928L17.4828 19.2756C17.6025 19.6441 17.1807 19.9506 16.8673 19.7228L11.3527 15.7162C11.1424 15.5634 10.8576 15.5634 10.6473 15.7162L5.13275 19.7228C4.81926 19.9506 4.39747 19.6441 4.51721 19.2756L6.62359 12.7928C6.70392 12.5456 6.61592 12.2748 6.40563 12.122L0.89105 8.1154C0.577564 7.88764 0.738675 7.3918 1.12616 7.3918H7.94256C8.2025 7.3918 8.43287 7.22442 8.51319 6.97721L10.6196 0.494428Z" fill="#FFC123" stroke="#DFDEE7" stroke-width="0.2"/>
</svg>
