<svg width="20" height="20" viewBox="0 0 20 20" fill="none" xmlns="http://www.w3.org/2000/svg">
<path d="M3.64645 19.3536C3.84171 19.5488 4.15829 19.5488 4.35355 19.3536L7.53553 16.1716C7.7308 15.9763 7.7308 15.6597 7.53553 15.4645C7.34027 15.2692 7.02369 15.2692 6.82843 15.4645L4 18.2929L1.17157 15.4645C0.97631 15.2692 0.659728 15.2692 0.464465 15.4645C0.269203 15.6597 0.269203 15.9763 0.464465 16.1716L3.64645 19.3536ZM3.5 1L3.5 19L4.5 19L4.5 1L3.5 1Z" fill="black"/>
<path d="M16.3536 0.646446C16.1583 0.451185 15.8417 0.451185 15.6464 0.646446L12.4645 3.82843C12.2692 4.02369 12.2692 4.34027 12.4645 4.53553C12.6597 4.7308 12.9763 4.7308 13.1716 4.53553L16 1.70711L18.8284 4.53553C19.0237 4.7308 19.3403 4.7308 19.5355 4.53553C19.7308 4.34027 19.7308 4.02369 19.5355 3.82843L16.3536 0.646446ZM16.5 19L16.5 1H15.5L15.5 19H16.5Z" fill="black"/>
</svg>
