<svg width="64" height="64" viewBox="0 0 64 64" fill="none" xmlns="http://www.w3.org/2000/svg">
<path fill-rule="evenodd" clip-rule="evenodd" d="M32 64C14.3274 64 0 49.6726 0 32C0 14.3267 14.3274 0 32 0C49.6726 0 64 14.3267 64 32C64 49.6726 49.6726 64 32 64ZM32 4.26667C16.6838 4.26667 4.26667 16.684 4.26667 32C4.26667 47.3162 16.684 59.7333 32 59.7333C47.3162 59.7333 59.7333 47.316 59.7333 32C59.7326 16.6838 47.316 4.26667 32 4.26667ZM32 32V8.53333C44.9598 8.53333 55.4667 19.04 55.4667 32H32Z" fill="url(#paint0_linear_281_10246)"/>
<defs>
<linearGradient id="paint0_linear_281_10246" x1="1.79439" y1="8.47058" x2="75.3443" y2="12.6754" gradientUnits="userSpaceOnUse">
<stop stop-color="#392D92"/>
<stop offset="1" stop-color="#2A2263"/>
</linearGradient>
</defs>
</svg>
