<svg width="33" height="33" viewBox="0 0 33 33" fill="none" xmlns="http://www.w3.org/2000/svg">
<circle cx="16.5" cy="16.5" r="16.5" fill="white"/>
<circle cx="16.5" cy="16.4998" r="15.18" fill="url(#paint0_linear_271_11022)"/>
<path d="M22.5223 13.9717C22.2011 13.1927 21.7272 12.5052 21.1309 11.9094C20.5346 11.3136 19.8312 10.8401 19.0667 10.5192C18.2412 10.168 17.4002 10 16.5134 10C15.6266 10 14.7856 10.168 13.9753 10.5041C13.1955 10.825 12.5074 11.2985 11.9111 11.8943C11.3148 12.49 10.8409 13.1928 10.5197 13.9566C10.1682 14.7813 10 15.6215 10 16.5076C10 17.3936 10.1682 18.2338 10.5046 19.0434C10.8257 19.8225 11.2997 20.51 11.896 21.1057C12.4923 21.7015 13.1956 22.175 13.9601 22.4959C14.7705 22.832 15.6114 23 16.4983 23C17.3851 23 18.226 22.832 19.0364 22.4959C19.8161 22.175 20.5043 21.7015 21.1006 21.1057C21.6969 20.51 22.1708 19.8072 22.492 19.0434C22.8283 18.2338 22.9965 17.3936 22.9965 16.5076C23.0268 15.6216 22.8586 14.7813 22.5222 13.9717H22.5223ZM16.5134 22.4958C13.2108 22.4958 10.5198 19.8072 10.5198 16.5075C10.5198 13.2079 13.2108 10.5193 16.5134 10.5193C19.816 10.5193 22.507 13.2079 22.507 16.5075C22.507 19.8072 19.816 22.4958 16.5134 22.4958Z" fill="white"/>
<path d="M18.752 11.1744C18.0313 10.873 17.2769 10.7222 16.5059 10.7222C15.7348 10.7222 14.9638 10.8729 14.2598 11.1744C13.5726 11.459 12.9524 11.8777 12.4159 12.4137C11.8795 12.9496 11.4605 13.5692 11.1755 14.2559C10.8739 14.9759 10.7229 15.7296 10.7229 16.4999C10.7229 17.2871 10.8738 18.0407 11.1755 18.744C11.4605 19.4307 11.8795 20.0503 12.4159 20.5862C12.9524 21.1222 13.5726 21.5409 14.2598 21.8255C14.9805 22.1269 15.7349 22.2777 16.5059 22.2777C17.277 22.2777 18.048 22.127 18.752 21.8255C19.4392 21.5408 20.0594 21.1222 20.5958 20.5862C21.1323 20.0503 21.5513 19.4307 21.8363 18.744C22.1379 18.0239 22.2889 17.2702 22.2889 16.4999C22.2889 15.7128 22.138 14.9592 21.8363 14.2559C21.5513 13.5692 21.1323 12.9496 20.5958 12.4137C20.0763 11.8777 19.456 11.459 18.752 11.1744ZM16.5059 17.1028C16.4556 17.1028 16.3885 17.1028 16.3382 17.0861L14.7459 18.677C14.6956 18.7272 14.6118 18.7608 14.5448 18.7608C14.4778 18.7608 14.3939 18.7272 14.3437 18.677C14.2263 18.5597 14.2263 18.3756 14.3437 18.275L15.9529 16.6673C15.9361 16.617 15.9361 16.5668 15.9361 16.4998C15.9361 16.282 16.0535 16.0811 16.2378 15.9806L16.2377 12.3298C16.2377 12.1623 16.3718 12.0451 16.5226 12.0451C16.6735 12.0451 16.8076 12.1791 16.8076 12.3298V15.9806C16.9919 16.0811 17.1092 16.282 17.1092 16.4998C17.1093 16.8348 16.8411 17.1028 16.5059 17.1028L16.5059 17.1028Z" fill="white"/>
<defs>
<linearGradient id="paint0_linear_271_11022" x1="2.17122" y1="5.33805" x2="37.0615" y2="7.33272" gradientUnits="userSpaceOnUse">
<stop stop-color="#392D92"/>
<stop offset="1" stop-color="#2A2263"/>
</linearGradient>
</defs>
</svg>
