<svg width="48" height="48" viewBox="0 0 48 48" fill="none" xmlns="http://www.w3.org/2000/svg">
<path fill-rule="evenodd" clip-rule="evenodd" d="M35.2077 15.5092L25.0227 33.6542C24.8305 34.0329 24.5083 34.2222 24.0561 34.2222C23.9995 34.2222 23.9147 34.2114 23.8017 34.1898C23.5529 34.1357 23.3523 34.014 23.1996 33.8246C23.047 33.6353 22.9707 33.4216 22.9707 33.1836L23.1996 23.5737L13.0818 20.8855C12.833 20.8855 12.6097 20.8125 12.4119 20.6664C12.214 20.5204 12.0868 20.3284 12.0303 20.0903C11.9738 19.8523 11.9964 19.6251 12.0981 19.4088C12.1999 19.1924 12.3638 19.0301 12.5899 18.9219L33.7492 14.1136C33.8962 14.0379 34.0601 14 34.241 14C34.5463 14 34.8007 14.1028 35.0042 14.3083C35.1738 14.4598 35.2784 14.6464 35.3179 14.8682C35.3575 15.09 35.3208 15.3037 35.2077 15.5092Z" fill="#484653"/>
</svg>
