<svg width="36" height="36" viewBox="0 0 36 36" fill="none" xmlns="http://www.w3.org/2000/svg">
<circle cx="18" cy="18" r="18" fill="white"/>
<circle cx="18" cy="17.9999" r="16.56" fill="url(#paint0_linear_231_8519)"/>
<path d="M13.68 11.52C13.8709 11.52 14.0541 11.5959 14.1891 11.7309C14.3241 11.8659 14.4 12.0491 14.4 12.24V12.8736C15.1632 12.5568 16.2 12.24 17.28 12.24C19.44 12.24 19.44 13.68 20.88 13.68C23.04 13.68 23.76 12.24 23.76 12.24V18C23.76 18 23.04 19.44 20.88 19.44C18.72 19.44 18.72 18 17.28 18C15.12 18 14.4 19.44 14.4 19.44V24.48H12.96V12.24C12.96 12.0491 13.0358 11.8659 13.1708 11.7309C13.3059 11.5959 13.489 11.52 13.68 11.52Z" fill="white"/>
<defs>
<linearGradient id="paint0_linear_231_8519" x1="2.3686" y1="5.82346" x2="40.4307" y2="7.99946" gradientUnits="userSpaceOnUse">
<stop stop-color="#392D92"/>
<stop offset="1" stop-color="#2A2263"/>
</linearGradient>
</defs>
</svg>
