<svg width="48" height="48" viewBox="0 0 48 48" fill="none" xmlns="http://www.w3.org/2000/svg">
<path d="M35.2193 33.4025C34.5593 33.0425 33.6593 32.8025 32.5193 32.5025C30.8993 32.1425 28.9193 31.9025 26.7593 31.7825C26.5193 32.2025 26.2193 32.6225 25.9793 32.9825C28.2593 33.0425 30.4193 33.2825 32.0993 33.6425C33.1193 33.8825 33.9593 34.1225 34.5593 34.3625C35.1593 34.6625 35.2793 34.8425 35.2793 34.9025C35.2793 34.9025 35.1593 35.1425 34.5593 35.4425C33.9593 35.7425 33.1193 35.9825 32.0993 36.1625C29.9393 36.6425 27.0593 36.8825 23.9997 36.8825C20.94 36.8825 18.0597 36.6425 15.9 36.1625C14.88 35.9225 14.04 35.6825 13.44 35.4425C12.84 35.1425 12.72 34.9625 12.72 34.9025C12.72 34.9025 12.84 34.6625 13.44 34.3625C14.04 34.0625 14.88 33.8225 15.9 33.6425C17.58 33.2825 19.74 33.0425 22.02 32.9825C21.78 32.6225 21.54 32.2025 21.24 31.7825C19.08 31.9025 17.1 32.1425 15.48 32.5025C14.34 32.7425 13.44 33.0425 12.78 33.4025C11.94 33.8225 11.52 34.3625 11.52 34.9625C11.52 35.5625 11.94 36.1025 12.78 36.5225C13.44 36.8825 14.34 37.1225 15.48 37.4225C17.76 37.9025 20.82 38.2025 24 38.2025C27.18 38.2025 30.24 37.9025 32.52 37.4225C33.66 37.1825 34.56 36.8825 35.22 36.5225C36.06 36.1025 36.48 35.5625 36.48 34.9625C36.48 34.3025 36.06 33.8225 35.22 33.4025H35.2193Z" fill="#484653"/>
<path d="M23.9997 35.8621C23.9997 35.8621 24.8397 34.7221 25.9797 32.9821C26.2197 32.6221 26.4597 32.2021 26.7597 31.7821C29.3397 27.7621 32.8197 21.7021 32.8197 18.6424C32.8197 13.7824 28.8597 9.82275 24 9.82275C19.1404 9.82275 15.1804 13.7828 15.1804 18.6424C15.1804 21.7024 18.6604 27.7021 21.2404 31.7821C21.4804 32.2021 21.7804 32.6221 22.0204 32.9821C23.1604 34.7221 24.0004 35.8621 24.0004 35.8621H23.9997ZM20.0397 18.6424C20.0397 16.4224 21.8397 14.6824 23.9997 14.6824C26.2197 14.6824 27.9597 16.4824 27.9597 18.6424C27.9597 20.8024 26.1597 22.6024 23.9997 22.6024C21.7797 22.6624 20.0397 20.8624 20.0397 18.6424Z" fill="#484653"/>
</svg>
